<?xml version="1.0" encoding="utf-8"?>
<!-- Generator: Adobe Illustrator 21.0.0, SVG Export Plug-In . SVG Version: 6.00 Build 0)  -->
<svg version="1.1" id="Camada_1" xmlns="http://www.w3.org/2000/svg" xmlns:xlink="http://www.w3.org/1999/xlink" x="0px" y="0px"
	 viewBox="0 0 1280 1024" style="enable-background:new 0 0 1280 1024;" xml:space="preserve">
<style type="text/css">
	.st0{fill:#152B15;}
</style>
<g>
	<path class="st0" d="M602.3,311.9c8.7,0,15.5,6.7,15.6,15.3c0.1,8.9-7.1,15.8-16.1,15.6c-8.6-0.2-15.4-7.2-15.2-15.7
		C586.8,318.5,593.7,311.8,602.3,311.9z"/>
	<path class="st0" d="M967,181.9c-0.5-30.4-20.2-57.4-48.8-67.7c-5.1-1.9-10.4-3.2-15.6-4.7c-153,0-306.1,0-459.1,0
		c-0.9,0.4-1.8,1-2.8,1.2c-37.8,8.3-60.3,34.8-61.8,73.4c-0.2,4.9-1.8,6.4-6.4,7.8c-35.6,10.4-59.2,41.2-59.6,77.9
		c-0.3,28.3-0.2,56.6,0.1,84.9c0.1,7.3,0.9,14.7,2.4,21.8c13.2,61.6,64.5,102.5,128.9,102.7c51.9,0.2,103.7,0.6,155.6-0.2
		c26.1-0.4,42.5,17.9,35.7,48.7c-3.6,0.4-7.3,0.7-10.9,1.2c-22.9,3.5-40.3,20.6-44.1,43.1c-3.6,21.5,6.9,43.7,26.7,54.1
		c5.4,2.8,6.6,5.8,6.1,11.5c-5.7,55.5-10.7,111-16.9,166.4c-4.2,37.7,6.9,68.6,36.9,92.2c12.6,9.9,27.5,14.5,42.7,18.4
		c7.9,0,15.7,0,23.6,0c1.2-0.5,2.3-1.1,3.6-1.4c38.2-7.2,67.1-35.2,75.5-73c4.3-19.4,0.5-38.6-1.2-57.8c-4.2-48.5-8.8-97-13.5-145.5
		c-0.6-5.8,1.1-8.7,6.2-11.6c19.5-11,29.3-33.2,25-54.9c-4.2-21.3-21.4-37.9-43.1-41.3c-4.3-0.7-8.7-1-13.6-1.6
		c0-4.3,0.5-8.3-0.1-12.1c-2-13.9-2.6-28.4-6.8-41.6c-16.9-53.7-66-88.4-124-88.7c-55-0.3-110,0-165.1-0.1
		c-15.7,0-28.7-8.9-31.3-23.3c-1.8-9.9-0.3-20.5-0.3-29.5c10.5,3.4,20.9,9.2,31.7,9.8c29.5,1.6,59.2,1.3,88.7,0.8
		c4.7-0.1,11-4.4,13.6-8.6c6.3-10.2-1.9-22-15-22.2c-24.6-0.3-49.3,0.1-73.9-0.2c-28.3-0.3-45.9-18.1-46-46.4
		c-0.1-25.7-0.1-51.4,0-77c0.1-29.7,17.7-47.2,47.6-47.2c66.5,0,133.1,0,199.6,0c2.8,0,5.5,0,8.9,0c0,13.6,0,26.1,0,38.7
		c0.1,36.6,21.4,60.1,57.7,63.6c16.6,1.6,27.5,10.6,28.8,26c1.1,13.7,0.2,27.6,0.2,42.4c-3.5,0-6.5,0-9.6,0c-24.1,0-48.2,0-72.3,0
		c-6.8,0-13.3,2.2-15.1,8.9c-1.3,5-1.1,12.3,1.8,15.8c3.2,3.9,10.2,6.2,15.7,6.4c23.6,0.7,47.2,0.3,70.7,0.3c2.8,0,5.6,0,9.2,0
		c-1,18.8,1.4,36,13,50.5c11.5,14.5,26.5,22.7,45,24c15.2,1.1,29.1-3.1,41.2-12.3c20.5-15.5,26.6-37.2,24.8-62.6
		c6.9,0,12.7,0.3,18.4-0.1c41.4-2.8,71-33.8,71.3-75.1C967.4,239.1,967.4,210.5,967,181.9z M695.6,882.6
		c-30.1,4.5-61.4-17.1-67-48.6c-2.4-13.3-0.5-27.6,0.8-41.4c4.8-51.6,10.2-103.2,15.4-154.7c0.2-1.5,0.6-3,0.9-4.9
		c28.8,0,57.2,0,86.4,0c1.1,11.2,2.3,22.3,3.3,33.5c4.5,49.8,9.2,99.6,13.5,149.4C751.8,849.2,728.8,877.6,695.6,882.6z
		 M743.4,559.6c12.7,0.1,21.1,9,21.2,20.7c0,12-8.6,20.6-21.8,20.9c-18.3,0.3-36.7,0.1-55,0.1c-13.6,0-27.1,0.2-40.7,0.1
		c-4.5,0-9-0.1-13.6-0.2c-16.5-0.3-26.6-15.1-20.3-29.1c3.7-8.2,10.5-12.4,19.3-12.5C669.5,559.4,706.5,559.3,743.4,559.6z
		 M445.8,416.3c54.8,0,109.5-0.3,164.3,0.2c47.1,0.4,85.7,32.5,94.9,78.5c2.1,10.4,1.9,21.2,2.8,32.7c-14.2,0-26.4,0-40.1,0
		c0-8.6,1-17.1-0.2-25.2c-4.7-32.5-30.6-54.6-63.7-54.7c-54.8-0.2-109.5,0.2-164.3-0.2c-42-0.3-78.7-28.1-91-68.3
		c-2.4-7.9-4-16.4-4.2-24.6c-0.5-28.6-0.6-57.1-0.1-85.7c0.3-19.4,10.1-33.6,27-43.1c1.4-0.8,2.8-1.3,4.3-1.8c0.7-0.2,1.5,0,3,0
		c0,2.9,0,5.7,0,8.6c0,38.8,0,77.6,0,116.3C378.7,390.1,404.8,416.3,445.8,416.3z M846.1,252.4c-0.4,34.6,0,69.2-0.2,103.7
		c-0.1,12.7-6.5,21.9-17.9,27.3c-11.2,5.3-22,3.7-31.7-3.9c-8.2-6.4-11.6-15.2-11.6-25.5c0-26.5,0.1-52.9,0-79.4
		c-0.1-35.8-24-61-59.6-62.9c-16-0.8-27-11.7-27.3-27.6c-0.3-14.1-0.1-28.2-0.1-43.3c5.4,0,9.5,0,13.7,0c60,0,120,0,180,0
		c19,0,34.5,10.5,41.2,27.3c1,2.6,1.6,5.4,2.5,8.2c-9,0.6-17.5,0.5-25.7,1.9C872.6,184.5,846.6,214.8,846.1,252.4z M935.7,266.7
		c-0.2,25.6-17.2,43.4-42.8,44.8c-4.9,0.3-9.8,0-15,0c0-22.3-1.4-43.8,0.4-65c2-22.6,21-37.7,43.7-38c4.2,0,8.3,0,13.6,0
		c0,7.4,0,14.3,0,21.2C935.7,242.1,935.8,254.4,935.7,266.7z"/>
</g>
</svg>
