<?xml version="1.0" encoding="utf-8"?>
<!-- Generator: Adobe Illustrator 21.0.0, SVG Export Plug-In . SVG Version: 6.00 Build 0)  -->
<svg version="1.1" id="Camada_1" xmlns="http://www.w3.org/2000/svg" xmlns:xlink="http://www.w3.org/1999/xlink" x="0px" y="0px"
	 viewBox="0 0 35.3 35.4" style="enable-background:new 0 0 35.3 35.4;" xml:space="preserve">
<style type="text/css">
	.st0{fill:#191818;}
	.st1{clip-path:url(#SVGID_2_);fill:#FFFFFF;}
	.st2{clip-path:url(#SVGID_2_);fill-rule:evenodd;clip-rule:evenodd;fill:#FFFFFF;}
</style>
<rect y="0" class="st0" width="35.3" height="35.4"/>
<g>
	<defs>
		<rect id="SVGID_1_" y="0" width="35.3" height="35.4"/>
	</defs>
	<clipPath id="SVGID_2_">
		<use xlink:href="#SVGID_1_"  style="overflow:visible;"/>
	</clipPath>
	<path class="st1" d="M0,35.4l2.5-9.5c-1.4-2.6-2.2-5.5-2.2-8.4C0.3,7.8,8.2,0,17.8,0s17.5,7.8,17.5,17.5c0,9.6-7.8,17.5-17.5,17.5
		c-2.9,0-5.7-0.7-8.3-2.1L0,35.4z M10,29.3l0.6,0.4c2.2,1.3,4.7,2,7.2,2c7.8,0,14.2-6.4,14.2-14.2c0-7.8-6.4-14.2-14.2-14.2
		S3.6,9.7,3.6,17.5c0,2.6,0.7,5.1,2.1,7.3l0.4,0.6l-1.4,5.3L10,29.3z"/>
	<path class="st2" d="M24.3,19.9c-0.7-0.4-1.7-0.9-2.5-0.6c-0.7,0.3-1.1,1.3-1.5,1.8c-0.2,0.3-0.5,0.3-0.8,0.2
		c-2.4-1-4.3-2.6-5.7-4.8c-0.2-0.3-0.2-0.6,0.1-0.9c0.4-0.5,0.9-1,1-1.7c0.1-0.6-0.2-1.4-0.5-2c-0.3-0.7-0.7-1.8-1.5-2.2
		c-0.7-0.4-1.6-0.2-2.2,0.3c-1,0.8-1.5,2.2-1.5,3.5c0,0.4,0.1,0.7,0.1,1.1c0.2,0.9,0.6,1.7,1.1,2.4c0.3,0.6,0.7,1.1,1.1,1.7
		c1.3,1.8,2.9,3.3,4.8,4.5c0.9,0.6,2,1.1,3,1.4c1.2,0.4,2.2,0.8,3.5,0.6c1.3-0.3,2.6-1.1,3.2-2.4c0.2-0.4,0.2-0.8,0.1-1.2
		C26.1,20.8,25,20.3,24.3,19.9"/>
</g>
</svg>
