<?xml version="1.0" encoding="utf-8"?>
<!-- Generator: Adobe Illustrator 21.0.0, SVG Export Plug-In . SVG Version: 6.00 Build 0)  -->
<svg version="1.1" id="Camada_1" xmlns="http://www.w3.org/2000/svg" xmlns:xlink="http://www.w3.org/1999/xlink" x="0px" y="0px"
	 viewBox="0 0 1280 1024" style="enable-background:new 0 0 1280 1024;" xml:space="preserve">
<style type="text/css">
	.st0{fill:#152B15;}
</style>
<g>
	<path class="st0" d="M1015.5,137.3c-14.5-16.7-36.6-20.5-54.5-7.3c-35.6,26.3-70.8,52.9-106.2,79.5c-7.6,5.7-8.4,12.6-2.8,20.5
		c3.2,4.5,6.5,8.9,10.2,13.9c-9.3,7-18.3,13.6-27.1,20.4c-12.3,9.5-18.3,22.2-17.9,37.7c0.2,7.9,1.8,15.8,1,23.6
		c-0.6,5.6-2.9,12.2-6.8,16c-8.2,7.8-17.9,14-27.4,21.2c-1.8-2.3-3.4-4.3-4.9-6.3c-17.3-23-34.4-46-51.8-68.9
		c-17.1-22.6-41.3-20.6-54.7,4.5c-33.7,62.6-67.4,125.2-100.9,188c-2.6,4.9-5.4,6.7-11.1,6.7c-97.9-0.2-195.8-0.1-293.7-0.3
		c-8,0-13.8,2.2-17.5,9.3c0,46.3,0,92.6,0,138.8c4.7,6.6,11.1,8.2,19,8.1c27.9-0.4,55.8-0.1,84.3-0.1c0,34.8,0,69.1,0,104.4
		c-3.6,0-7.1,0-10.5,0c-24.9,0-49.8,0.2-74.6-0.1c-7.7-0.1-13.8,1.8-18.2,8.3c0,46.3,0,92.6,0,138.8c3.1,6.1,8,7.8,14.9,7.8
		c206.4-0.2,412.9-0.2,619.3-0.2c14,0,16.8-2.8,16.9-16.8c0-34.3,0-68.6,0-103c0-2.7,0-5.4,0-8.8c3.7,0,6.5,0,9.2,0
		c25.9,0,51.9,0.1,77.8,0c12.5,0,17-4.6,17-17.1c0-40.7,0-81.4,0-122c0-13-4.4-17.3-17.5-17.4c-25.9,0-51.9,0-77.8,0
		c-2.7,0-5.4,0-8.8,0c0-3.7,0-6.4,0-9.2c0-34.6,0-69.2,0-103.7c0-12.7-4.4-17-16.9-17.1c-6.5,0-12.9,0-19.8,0
		c1.5-12.1-2.5-21.1-9.2-29.3c-4.5-5.5-8.6-11.3-12.9-17c-14-18.7-28-37.4-42.3-56.5c9.1-6.9,17.9-13.4,26.5-20
		c12.7-9.8,19.1-22.8,18.5-39c-0.3-7.4-1.5-14.8-1.1-22.1c0.3-4.8,1.2-11.1,4.3-14c9.3-8.7,19.9-16.1,30.1-24.1
		c3.2,4.3,5.7,7.6,8.1,10.8c9.1,12.1,14.1,12.8,26.4,3.5c31.3-23.5,62-47.9,94.1-70.2C1033.2,190.4,1039.4,164.8,1015.5,137.3z
		 M484.7,513.3c22.5,0,45.2,0,69,0c-1.2,2.5-2.3,4.6-3.4,6.8c-5.5,11.6-4.9,22.7,3,32.9c7.9,10.3,18.7,13.6,31.2,11
		c25.6-5.3,51.1-10.8,76.7-16.2c1.4-0.3,2.9-0.4,4.7-0.6c0,23.1,0,45.9,0,69.2c-60.4,0-120.5,0-181.2,0
		C484.7,582.1,484.7,548,484.7,513.3z M769.7,643.4c0,34.4,0,68.5,0,103.2c-60.3,0-120.4,0-181.3,0c0-34.6,0-68.6,0-103.2
		C648.8,643.4,709,643.4,769.7,643.4z M561.5,643.4c0,33.8,0,67.7,0,102.7c-59.9,0-120.3,0-181.5,0c0-34.1,0-68,0-102.7
		C440.4,643.4,500.7,643.4,561.5,643.4z M275.9,616.2c0-17.1,0-33.7,0-51.6c5.1,0,10,0,15,0c17.4,0,23.9-3.6,23.7-13.2
		c-0.2-9.4-6.6-12.8-24.2-12.8c-4.6,0-9.1,0-14.6,0c0-8.9,0-16.9,0-25.5c60.4,0,120.7,0,181.5,0c0,34.2,0,68.4,0,103
		C396.8,616.2,336.6,616.2,275.9,616.2z M457.2,877c-60.5,0-120.6,0-181.3,0c0-34.8,0-68.8,0-103.3c60.4,0,120.5,0,181.3,0
		C457.2,808.1,457.2,842.4,457.2,877z M665.7,876.8c-60.3,0-120.6,0-181.3,0c0-34.3,0-68.3,0-102.9c60.3,0,120.5,0,181.3,0
		C665.7,808,665.7,842.1,665.7,876.8z M874.2,876.8c-60.7,0-121,0-181.7,0c0-34.5,0-68.6,0-103.2c60.6,0,120.7,0,181.7,0
		C874.2,808.4,874.2,842.3,874.2,876.8z M978.3,643.2c0,34.5,0,68.5,0,103.4c-2.3,0.2-4.7,0.5-7.1,0.5c-55.7,0-111.4-0.1-167,0.2
		c-6.4,0-8.1-1.9-8-8.2c0.3-29.5,0.1-59,0.2-88.5c0-2.2,0.2-4.5,0.4-7.4C857.7,643.2,917.8,643.2,978.3,643.2z M874.2,513.2
		c0,34.4,0,68.3,0,102.9c-60.5,0-120.7,0-181.5,0c-0.2-1.5-0.6-3.2-0.6-4.9c0-21.3,0.1-42.7-0.1-64c-0.1-4.7,1.3-6.5,6.1-7.5
		c41.7-8.7,83.2-18.6,125.1-26.1C839.4,510.7,856.6,513.2,874.2,513.2z M835.2,474.9c4.9,6.6,4.3,8.3-3.6,10
		c-83.4,17.7-166.8,35.5-250.2,53c-2.4,0.5-5.1-0.7-7.7-1.1c0.4-2.6,0.1-5.5,1.3-7.7c40.3-75.2,80.7-150.2,121-225.4
		c2.5-4.6,4.9-7.7,9.3-2c19.1,25.3,38.1,50.7,57.7,76.9c-18,13.5-35.3,26.4-52.5,39.5c-7.3,5.6-8.4,13.7-3.1,19.8
		c5,5.6,11.7,6,19.1,0.6c17.2-12.7,34.2-25.5,52.5-39.3c0.9,1.4,1.7,2.9,2.7,4.3C799.5,427.3,817.4,451.1,835.2,474.9z M998.5,181.9
		c-31.6,23.9-63.4,47.6-96,72.1c-7.7-10.3-15-20-22.6-30.2c1.9-1.6,3.5-3,5.2-4.3c29.5-22.1,58.9-44.3,88.4-66.4
		c10.1-7.6,16.1-6.7,23.7,3.3c1.4,1.8,2.8,3.6,4.1,5.5C1006.6,169.7,1005.9,176.3,998.5,181.9z"/>
	<path class="st0" d="M379.2,564.7c-8.1,0-16.2,0.1-24.3,0c-8.7-0.2-13.9-5-14-12.7c-0.1-7.9,5.3-13.2,14.3-13.2
		c16.5-0.2,32.9-0.2,49.4,0c8.3,0.1,14,5.5,14.2,12.7c0.2,7.6-5.7,13-14.5,13.2C396,564.8,387.6,564.7,379.2,564.7z"/>
</g>
</svg>
