<?xml version="1.0" encoding="utf-8"?>
<!-- Generator: Adobe Illustrator 21.0.0, SVG Export Plug-In . SVG Version: 6.00 Build 0)  -->
<svg version="1.1" id="Camada_1" xmlns="http://www.w3.org/2000/svg" xmlns:xlink="http://www.w3.org/1999/xlink" x="0px" y="0px"
	 viewBox="0 0 1280 1024" style="enable-background:new 0 0 1280 1024;" xml:space="preserve">
<style type="text/css">
	.st0{fill:#85AF37;}
	.st1{fill:#152B15;}
</style>
<g>
	<path class="st0" d="M772.6,253.6h-34.4c-15.3,0-27.8,11.3-27.8,25.1v59.1c0,0.1,0,0.2,0,0.3v27.4c0,2.7,2.2,4.8,4.8,4.8h8.6
		c2.7,0,4.8-2.2,4.8-4.8v-27.4c0-0.1,0-0.2,0-0.4v-59.1c0-3.7,4.5-6.9,9.6-6.9h34.4c5.1,0,9.6,3.2,9.6,6.9v2.2v112.5v2.2
		c0,3.7-4.5,6.9-9.6,6.9h-1.5h-1.6l-74.2-0.1c-5.2,0-9.5-4.2-9.6-9.4v-0.2v-58V150.6c0-15.3-12.5-27.8-27.8-27.8h-34.4
		c-15.3,0-27.8,12.5-27.8,27.8v57.1v114.7c0,3.7-4.5,6.9-9.6,6.9h-7.1c-5.1,0-9.6-3.2-9.6-6.9v-17v-38.5v-17.9
		c0-15.3-12.5-27.8-27.8-27.8h-34.4c-15.3,0-27.8,12.5-27.8,27.8v109.6v34.4c0,15.3,12.5,27.8,27.8,27.8h0.3h34h116.5
		c5.1,0.2,9.2,4.3,9.3,9.4c0,0,0,0.1,0,0.1v32.6c0,0,0,0,0,0v3.7v20.4c0,5.3-4.3,9.6-9.6,9.6h-34.4c-5.3,0-9.6-4.3-9.6-9.6v-27.3
		c0-0.1,0-0.2,0-0.4v-2c0-2.7-2.2-4.8-4.8-4.8h-8.6c-2.7,0-4.8,2.2-4.8,4.8v2c0,0.1,0,0.2,0,0.4v27.3c0,15.3,12.5,27.8,27.8,27.8
		h34.4c15.3,0,27.8-12.5,27.8-27.8v-24.1v-32.6v-0.2c0.1-5.1,4.2-9.2,9.3-9.3h73.2h2.9h1.5c15.3,0,27.8-11.3,27.8-25.1v-2.2V280.9
		v-2.2C800.4,264.9,787.9,253.6,772.6,253.6z M507.7,402.5c-5.5,0-9.9-4.3-9.9-9.6v-34.4V248.9c0-5.3,4.3-9.6,9.6-9.6h34.4
		c5.3,0,9.6,4.3,9.6,9.6v25.7v35.5v12.3c0,13.8,12.5,25.1,27.8,25.1h7.1c14.4,0,26.3-10,27.7-22.8c0,0,0.1,0,0.1,0v-2.3V207.7v-57.1
		c0-5.3,4.3-9.6,9.6-9.6h34.4c5.3,0,9.6,4.3,9.6,9.6v180.6v3.7c0,0,0,0,0,0v58c0,0,0,0.1,0,0.1c-0.1,5.2-4.3,9.5-9.6,9.5h-22.8
		c0,0,0,0.1,0,0.1h-93.4H507.7z"/>
	<g>
		<g>
			<g>
				<path class="st1" d="M342.4,557h-0.2h-19h-63.1c0,0,0,0,0,0h-1.7c-8.5,0-15.5,7-15.5,15.5v13.3v19v51.3v51.5v51.3v19v13.3
					c0,8.5,6.9,15.5,15.5,15.5h1.7c0,0,0,0,0,0h63.1h19h0.2c8.5,0,15.5-6.9,15.5-15.5V772v-61.1c0-8.5-6.9-15.5-15.5-15.5h-19.2
					c-8.5,0-15.5,6.9-15.5,15.5v10v21.5v9.5c0,2.1-2.5,3.9-5.4,3.9h-3.9c-2.9,0-5.4-1.8-5.4-3.9v-44.3v-51.5v-44.3
					c0-2.1,2.5-3.9,5.4-3.9h3.9c2.9,0,5.4,1.8,5.4,3.9v9.5v21.5v10c0,8.5,6.9,15.5,15.5,15.5h19.2c8.5,0,15.5-6.9,15.5-15.5v-61.1
					v-19.2C357.9,563.9,350.9,557,342.4,557z"/>
				<path class="st1" d="M424.1,679.2v-67.4c0-2.1,2.5-3.9,5.4-3.9h3.9c2.9,0,5.4,1.8,5.4,3.9V791c0,8.5,6.9,15.5,15.5,15.5h19.2
					c8.5,0,15.5-6.9,15.5-15.5V572.4c0-8.5-6.9-15.5-15.5-15.5h-82.3c0,0,0,0,0,0h-1.7c-8.5,0-15.5,7-15.5,15.5v106.7H424.1z"/>
				<path class="st1" d="M424.1,611.8V791c0,8.5-6.9,15.5-15.5,15.5h-19.2c-8.5,0-15.5-6.9-15.5-15.5V572.4"/>
				<path class="st1" d="M604.4,557h-0.2h-19h-63.1c0,0,0,0,0,0h-1.7c-8.5,0-15.5,7-15.5,15.5v13.3v19v51.3v51.5v51.3v19v13.3
					c0,8.5,6.9,15.5,15.5,15.5h1.7c0,0,0,0,0,0h63.1h19h0.2c8.5,0,15.5-6.9,15.5-15.5V772v-61.1c0-8.5-6.9-15.5-15.5-15.5h-19.2
					c-8.5,0-15.5,6.9-15.5,15.5v10v21.5v9.5c0,2.1-2.5,3.9-5.4,3.9h-3.9c-2.9,0-5.4-1.8-5.4-3.9v-44.3v-51.5v-44.3
					c0-2.1,2.5-3.9,5.4-3.9h3.9c2.9,0,5.4,1.8,5.4,3.9v9.5v21.5v10c0,8.5,6.9,15.5,15.5,15.5h19.2c8.5,0,15.5-6.9,15.5-15.5v-61.1
					v-19.2C619.9,563.9,612.9,557,604.4,557z"/>
				<path class="st1" d="M780.2,572.8c0-1.7-0.3-3.3-0.8-4.8c-1.9-6.4-7.8-11.1-14.8-11.1H588.7c-5.9,0-11,3.3-13.6,8.2
					c-1.3,2.3-2,4.9-2,7.7v19.4c0,8.7,7,15.7,15.7,15.7h85.8c2.8,0.1,5.2,1.8,5.2,3.8v114.4h0v64.5c0,8.5,6.9,15.5,15.5,15.5h19.2
					c8.5,0,15.5-6.9,15.5-15.5v-94.8h0v-84.1c0-1.8,1.8-3.3,4.2-3.7c0,0,0-0.1,0-0.1h30.3c7.8,0,14.2-5.7,15.5-13.1c0,0,0.1,0,0.1,0
					V594c0.1-0.6,0.1-1.2,0.1-1.7V572.8z"/>
				<g>
					<path class="st1" d="M890.4,557h-0.2h-19h-63.1c0,0,0,0,0,0h-1.7c-8.5,0-15.5,7-15.5,15.5v13.3v19v51.3v51.5v51.3v19v13.3
						c0,8.5,6.9,15.5,15.5,15.5h1.7c0,0,0,0,0,0h63.1h19h0.2c8.5,0,15.5-6.9,15.5-15.5V772v-61.1c0-8.5-6.9-15.5-15.5-15.5h-19.2
						c-8.5,0-15.5,6.9-15.5,15.5v10v21.5v9.5c0,2.1-2.5,3.9-5.4,3.9h-3.9c-2.9,0-5.4-1.8-5.4-3.9v-44.3v-51.5v-44.3
						c0-2.1,2.5-3.9,5.4-3.9h3.9c2.9,0,5.4,1.8,5.4,3.9v9.5v107.5v10c0,8.5,6.9,15.5,15.5,15.5h19.2c8.5,0,15.5-6.9,15.5-15.5V591.6
						v-19.2C905.9,563.9,899,557,890.4,557z"/>
				</g>
				<g>
					<path class="st1" d="M1021.4,557h-82.3c0,0,0,0,0,0h-1.7c-8.5,0-15.5,7-15.5,15.5v115.8l29.2-18.5c2.7-5,7.7-8.6,15.1-8.6
						c2.1,0,4.1,0.3,5.8,0.9v-50.3c0-2.1,2.5-3.9,5.4-3.9h3.9c2.9,0,5.4,1.8,5.4,3.9v19.4c0,8.5,6.9,15.5,15.5,15.5h19.2
						c8.5,0,15.5-6.9,15.5-15.5v-58.8C1036.9,563.9,1030,557,1021.4,557z"/>
					<path class="st1" d="M1030.9,693.8c-12-1.8-25.4,2.7-36.9-1.7c-2.7-1-5.1-2.5-7.1-4.3v64.1c0,2.1-2.5,3.9-5.4,3.9h-3.9
						c-2.9,0-5.4-1.8-5.4-3.9v-19.4c0-8.5-6.9-15.5-15.5-15.5h-19.2c-8.5,0-15.5,6.9-15.5,15.5v58.8c0,8.5,6.9,15.5,15.5,15.5h82.3
						c0,0,0,0,0,0h1.7c8.5,0,15.5-7,15.5-15.5V674.3C1034.9,674.5,1032.9,694.1,1030.9,693.8z"/>
					<path class="st1" d="M986.8,712v3.9h21c-0.2-5.3-1.1-10.5-3.1-14.8c-6.4-13.5-17.8-10.1-30.6-9.6c-11.8,0.5-17,9.2-25.6,15.1
						h34.4C985,706.6,986.8,709.1,986.8,712z"/>
					<path class="st1" d="M986.8,712v3.9h21c-0.2-5.3-1.1-10.5-3.1-14.8c-6.4-13.5-17.8-10.1-30.6-9.6c-11.8,0.5-17,9.2-25.6,15.1
						h34.4C985,706.6,986.8,709.1,986.8,712z"/>
					<path class="st1" d="M972.1,651.7v-3.9h-21c0.2,5.3,1.1,10.5,3.1,14.8c6.4,13.5,17.8,10.1,30.6,9.6c11.8-0.5,17-9.2,25.6-15.1
						H976C973.9,657,972.1,654.5,972.1,651.7z"/>
					<path class="st1" d="M1037,691v-12.1v-7.2c0-0.2,0-0.4,0-0.6c0,0,0,0,0,0c-0.7-7.9-7.4-14.2-15.5-14.2h-31.7h-36.1h-0.3h-15.8
						c-8.6,0-15.6,7-15.6,15.6v12.1v7.2c0,0.2,0,0.4,0,0.6c0,0,0,0,0,0c0.7,7.9,7.4,14.2,15.5,14.2h67.8h0.3h15.8
						C1030.1,706.6,1037,699.6,1037,691z"/>
				</g>
				<path class="st1" d="M468.1,696.3h-79.4c-1.7,0-3.1-1.4-3.1-3.1v-21.6c0-1.7,1.4-3.1,3.1-3.1h79.4c1.7,0,3.1,1.4,3.1,3.1v21.6
					C471.2,694.8,469.8,696.3,468.1,696.3z"/>
				<g>
					<path class="st1" d="M438.7,699.2v2.2h11.5c-0.1-2.9-0.6-5.8-1.7-8.1c-3.5-7.4-9.7-5.5-16.7-5.2c-6.4,0.3-9.3,5-14,8.2h18.8
						C437.7,696.2,438.7,697.6,438.7,699.2z"/>
					<path class="st1" d="M424,699.2v2.2h-11.5c0.1-2.9,0.6-5.8,1.7-8.1c3.5-7.4,9.7-5.5,16.7-5.2c6.4,0.3,9.3,5,14,8.2h-18.8
						C425,696.2,424,697.6,424,699.2z"/>
				</g>
				<g>
					<path class="st1" d="M424,665.4v-2.2h-11.5c0.1,2.9,0.6,5.8,1.7,8.1c3.5,7.4,9.7,5.5,16.7,5.2c6.4-0.3,9.3-5,14-8.2h-18.8
						C425,668.4,424,667,424,665.4z"/>
					<path class="st1" d="M438.7,665.4v-2.2h11.5c-0.1,2.9-0.6,5.8-1.7,8.1c-3.5,7.4-9.7,5.5-16.7,5.2c-6.4-0.3-9.3-5-14-8.2h18.8
						C437.7,668.4,438.7,667,438.7,665.4z"/>
				</g>
			</g>
		</g>
		<g>
			<path class="st0" d="M327.6,848.4c-1.3-1.3-2.8-2.3-4.5-3c-1.7-0.7-3.6-1.1-5.5-1.1h-3.8c-1.9,0-3.8,0.4-5.5,1.1
				c-1.7,0.7-3.2,1.8-4.5,3c-1.3,1.3-2.3,2.8-3,4.5c-0.7,1.7-1.1,3.6-1.1,5.5V887c0,1.9,0.4,3.8,1.1,5.5c0.7,1.7,1.8,3.2,3,4.5
				c1.3,1.3,2.8,2.3,4.5,3c1.7,0.7,3.6,1.1,5.5,1.1h3.8c1.9,0,3.8-0.4,5.5-1.1c1.7-0.7,3.2-1.8,4.5-3c1.3-1.3,2.3-2.8,3-4.5
				c0.7-1.7,1.1-3.6,1.1-5.5v-3l-6.9-1.1v4.1c0,1-0.2,2-0.6,2.9c-0.4,0.9-0.9,1.7-1.6,2.4c-0.7,0.7-1.5,1.2-2.4,1.6
				c-0.9,0.4-1.9,0.6-2.9,0.6H314c-1,0-2-0.2-2.9-0.6c-0.9-0.4-1.7-0.9-2.4-1.6c-0.7-0.7-1.2-1.5-1.6-2.4c-0.4-0.9-0.6-1.9-0.6-2.9
				v-28.7c0-1,0.2-2,0.6-2.9c0.4-0.9,0.9-1.7,1.6-2.4c0.7-0.7,1.5-1.2,2.4-1.6c0.9-0.4,1.9-0.6,2.9-0.6h3.4c1,0,2,0.2,2.9,0.6
				c0.9,0.4,1.7,0.9,2.4,1.6c0.7,0.7,1.2,1.5,1.6,2.4c0.4,0.9,0.6,1.9,0.6,2.9v4.1l6.9-1.1v-3.1c0-1.9-0.4-3.8-1.1-5.5
				C329.9,851.2,328.9,849.7,327.6,848.4z"/>
			<path class="st0" d="M393.4,848.4c-1.3-1.3-2.8-2.3-4.5-3c-1.7-0.7-3.6-1.1-5.5-1.1h-3.8c-1.9,0-3.8,0.4-5.5,1.1
				c-1.7,0.7-3.2,1.8-4.5,3c-1.3,1.3-2.3,2.8-3,4.5c-0.7,1.7-1.1,3.6-1.1,5.5V887c0,1.9,0.4,3.8,1.1,5.5c0.7,1.7,1.8,3.2,3,4.5
				c1.3,1.3,2.8,2.3,4.5,3c1.7,0.7,3.6,1.1,5.5,1.1h3.8c1.9,0,3.8-0.4,5.5-1.1c1.7-0.7,3.2-1.8,4.5-3c1.3-1.3,2.3-2.8,3-4.5
				c0.7-1.7,1.1-3.6,1.1-5.5v-28.7c0-1.9-0.4-3.8-1.1-5.5C395.7,851.2,394.7,849.7,393.4,848.4z M390.6,858.4V887c0,1-0.2,2-0.6,2.9
				c-0.4,0.9-0.9,1.7-1.6,2.4c-0.7,0.7-1.5,1.2-2.4,1.6c-0.9,0.4-1.9,0.6-2.9,0.6h-3.4c-1,0-2-0.2-2.9-0.6c-0.9-0.4-1.7-0.9-2.4-1.6
				c-0.7-0.7-1.2-1.5-1.6-2.4c-0.4-0.9-0.6-1.9-0.6-2.9v-28.7c0-1,0.2-2,0.6-2.9c0.4-0.9,0.9-1.7,1.6-2.4c0.7-0.7,1.5-1.2,2.4-1.6
				c0.9-0.4,1.9-0.6,2.9-0.6h3.4c1,0,2,0.2,2.9,0.6c0.9,0.4,1.7,0.9,2.4,1.6c0.7,0.7,1.2,1.5,1.6,2.4
				C390.5,856.4,390.6,857.4,390.6,858.4z"/>
			<polygon class="st0" points="458,882.5 437,845.7 432.8,845.7 432.8,901.2 439.7,901.2 439.7,864.5 460.8,901.2 465,901.2 
				465,845.7 458,845.7 			"/>
			<path class="st0" d="M528,874.8c-1.3-1.2-2.7-2.2-4.3-3c-1.5-0.8-3.1-1.5-4.7-2.1c-1.6-0.6-3.1-1.2-4.6-1.9
				c-1.4-0.6-2.7-1.3-3.8-2c-1.1-0.7-1.9-1.6-2.6-2.7c-0.6-1-0.9-2.3-0.9-3.8v-1c0-1,0.2-2,0.6-2.9c0.4-0.9,0.9-1.7,1.6-2.4
				c0.7-0.7,1.5-1.2,2.4-1.6c0.9-0.4,1.9-0.6,2.9-0.6h3c1,0,2,0.2,2.9,0.6c0.9,0.4,1.7,0.9,2.4,1.6c0.7,0.7,1.2,1.5,1.6,2.4
				c0.4,0.9,0.6,1.9,0.6,2.9v3.4l6.9-1.1v-2.3c0-1.9-0.4-3.8-1.1-5.5c-0.7-1.7-1.8-3.2-3-4.5c-1.3-1.3-2.8-2.3-4.5-3
				c-1.7-0.7-3.6-1.1-5.5-1.1h-3.4c-1.9,0-3.8,0.4-5.5,1.1c-1.7,0.7-3.2,1.8-4.5,3c-1.3,1.3-2.3,2.8-3,4.5c-0.7,1.7-1.1,3.6-1.1,5.5
				v1c0,2.4,0.4,4.5,1.2,6.2c0.8,1.7,1.8,3.1,3.1,4.3c1.3,1.1,2.7,2.1,4.3,2.9c1.5,0.7,3.1,1.4,4.7,2c1.6,0.6,3.1,1.2,4.6,1.8
				c1.4,0.6,2.7,1.3,3.8,2.1c1.1,0.8,1.9,1.7,2.6,2.8c0.6,1,0.9,2.4,0.9,4v1.6c0,1-0.2,2-0.6,2.9c-0.4,0.9-1,1.7-1.7,2.4
				c-0.7,0.7-1.6,1.2-2.5,1.6c-0.9,0.4-1.9,0.6-3,0.6h-3.3c-1,0-2.1-0.2-3-0.6c-1-0.4-1.8-1-2.5-1.6c-0.7-0.7-1.3-1.5-1.7-2.4
				c-0.4-0.9-0.6-1.9-0.6-2.9v-4.1l-6.9,1.1v3c0,2,0.4,3.8,1.2,5.5c0.8,1.7,1.8,3.2,3.2,4.5c1.3,1.3,2.9,2.3,4.6,3
				c1.8,0.7,3.6,1.1,5.6,1.1h3.8c1.9,0,3.8-0.4,5.6-1.1c1.7-0.7,3.3-1.7,4.6-3c1.3-1.3,2.4-2.8,3.2-4.5c0.8-1.7,1.2-3.6,1.2-5.5
				v-1.6c0-2.4-0.4-4.5-1.2-6.2C530.4,877.5,529.3,876,528,874.8z"/>
			<polygon class="st0" points="561.8,852.4 574.6,852.4 574.6,901.2 581.5,901.2 581.5,852.4 594.2,852.4 594.2,845.7 561.8,845.7 
							"/>
			<path class="st0" d="M648.4,877.3c1.7-0.7,3.2-1.8,4.5-3c1.3-1.3,2.3-2.8,3-4.5c0.7-1.7,1.1-3.6,1.1-5.5v-4.3
				c0-1.9-0.4-3.8-1.1-5.5c-0.7-1.7-1.8-3.2-3-4.5c-1.3-1.3-2.8-2.3-4.5-3c-1.7-0.7-3.6-1.1-5.5-1.1h-18v55.5h6.9v-22.8h4.9
				l14.5,22.8h8l-14.5-22.9C646,878.1,647.2,877.8,648.4,877.3z M631.8,852.4h10.9c1,0,2,0.2,2.9,0.6c0.9,0.4,1.7,0.9,2.4,1.6
				c0.7,0.7,1.2,1.5,1.6,2.4c0.4,0.9,0.6,1.9,0.6,2.9v4.3c0,1-0.2,2-0.6,2.9c-0.4,0.9-0.9,1.7-1.6,2.4c-0.7,0.7-1.5,1.2-2.4,1.6
				c-0.9,0.4-1.9,0.6-2.9,0.6h-10.9V852.4z"/>
			<path class="st0" d="M715.8,887c0,1-0.2,2-0.6,2.9c-0.4,0.9-0.9,1.7-1.6,2.4c-0.7,0.7-1.5,1.2-2.4,1.6c-0.9,0.4-1.9,0.6-2.9,0.6
				H705c-1,0-2-0.2-2.9-0.6c-0.9-0.4-1.7-0.9-2.4-1.6c-0.7-0.7-1.2-1.5-1.6-2.4c-0.4-0.9-0.6-1.9-0.6-2.9V845h-6.9V887
				c0,1.9,0.4,3.8,1.1,5.5c0.7,1.7,1.7,3.2,3,4.5c1.3,1.3,2.8,2.3,4.5,3c1.7,0.7,3.6,1.1,5.5,1.1h3.8c1.9,0,3.8-0.4,5.5-1.1
				c1.7-0.7,3.2-1.8,4.5-3c1.3-1.3,2.3-2.8,3-4.5c0.7-1.7,1.1-3.6,1.1-5.5V845h-6.9V887z"/>
			<polygon class="st0" points="753.4,852.4 766.1,852.4 766.1,901.2 773,901.2 773,852.4 785.7,852.4 785.7,845.7 753.4,845.7 			
				"/>
			<path class="st0" d="M844.4,848.4c-1.3-1.3-2.8-2.3-4.5-3c-1.7-0.7-3.6-1.1-5.5-1.1h-3.8c-1.9,0-3.8,0.4-5.5,1.1
				c-1.7,0.7-3.2,1.8-4.5,3c-1.3,1.3-2.3,2.8-3,4.5c-0.7,1.7-1.1,3.6-1.1,5.5V887c0,1.9,0.4,3.8,1.1,5.5c0.7,1.7,1.7,3.2,3,4.5
				c1.3,1.3,2.8,2.3,4.5,3c1.7,0.7,3.6,1.1,5.5,1.1h3.8c1.9,0,3.8-0.4,5.5-1.1c1.7-0.7,3.2-1.8,4.5-3c1.3-1.3,2.3-2.8,3-4.5
				c0.7-1.7,1.1-3.6,1.1-5.5v-28.7c0-1.9-0.4-3.8-1.1-5.5C846.7,851.2,845.6,849.7,844.4,848.4z M841.6,858.4V887c0,1-0.2,2-0.6,2.9
				c-0.4,0.9-0.9,1.7-1.6,2.4c-0.7,0.7-1.5,1.2-2.4,1.6c-0.9,0.4-1.9,0.6-2.9,0.6h-3.3c-1,0-2-0.2-2.9-0.6c-0.9-0.4-1.7-0.9-2.4-1.6
				c-0.7-0.7-1.2-1.5-1.6-2.4c-0.4-0.9-0.6-1.9-0.6-2.9v-28.7c0-1,0.2-2,0.6-2.9c0.4-0.9,0.9-1.7,1.6-2.4c0.7-0.7,1.5-1.2,2.4-1.6
				c0.9-0.4,1.9-0.6,2.9-0.6h3.3c1,0,2,0.2,2.9,0.6c0.9,0.4,1.7,0.9,2.4,1.6c0.7,0.7,1.2,1.5,1.6,2.4
				C841.4,856.4,841.6,857.4,841.6,858.4z"/>
			<path class="st0" d="M906.5,877.3c1.7-0.7,3.2-1.8,4.5-3c1.3-1.3,2.3-2.8,3-4.5c0.7-1.7,1.1-3.6,1.1-5.5v-4.3
				c0-1.9-0.4-3.8-1.1-5.5c-0.7-1.7-1.8-3.2-3-4.5c-1.3-1.3-2.8-2.3-4.5-3c-1.7-0.7-3.6-1.1-5.5-1.1h-18v55.5h6.9v-22.8h4.9
				l14.5,22.8h8l-14.5-22.9C904.1,878.1,905.3,877.8,906.5,877.3z M889.9,852.4h10.9c1,0,2,0.2,2.9,0.6c0.9,0.4,1.7,0.9,2.4,1.6
				c0.7,0.7,1.2,1.5,1.6,2.4c0.4,0.9,0.6,1.9,0.6,2.9v4.3c0,1-0.2,2-0.6,2.9c-0.4,0.9-0.9,1.7-1.6,2.4c-0.7,0.7-1.5,1.2-2.4,1.6
				c-0.9,0.4-1.9,0.6-2.9,0.6h-10.9V852.4z"/>
			<path class="st0" d="M964.1,845.7H960l-16.2,55.5h7.2l3.5-12.4h15.3l3.5,12.4h7.2L964.1,845.7z M967.9,882.1h-11.5l5.7-20.2
				L967.9,882.1z"/>
		</g>
	</g>
</g>
</svg>
