<?xml version="1.0" encoding="utf-8"?>
<!-- Generator: Adobe Illustrator 21.0.0, SVG Export Plug-In . SVG Version: 6.00 Build 0)  -->
<svg version="1.1" id="Camada_1" xmlns="http://www.w3.org/2000/svg" xmlns:xlink="http://www.w3.org/1999/xlink" x="0px" y="0px"
	 viewBox="0 0 1280 1024" style="enable-background:new 0 0 1280 1024;" xml:space="preserve">
<style type="text/css">
	.st0{fill:#152B15;}
	.st1{fill:#85AF37;}
	.st2{fill:#FFFFFF;}
	.st3{font-family:'MyriadPro-Regular';}
	.st4{font-size:72px;}
</style>
<rect x="-1.5" class="st0" width="1283" height="1024"/>
<g>
	<path class="st1" d="M397,456.7h-29.2c-13,0-23.6,9.6-23.6,21.3v50.2c0,0.1,0,0.2,0,0.3v23.3c0,2.3,1.8,4.1,4.1,4.1h7.3
		c2.3,0,4.1-1.8,4.1-4.1v-23.3c0-0.1,0-0.2,0-0.3V478c0-3.1,3.8-5.9,8.2-5.9H397c4.3,0,8.2,2.7,8.2,5.9v1.8v95.6v1.8
		c0,3.1-3.8,5.9-8.2,5.9h-1.3h-1.4l-63-0.1c-4.4,0-8-3.6-8.1-8V575v-49.2V369.1c0-13-10.6-23.6-23.6-23.6h-29.2
		c-13,0-23.6,10.6-23.6,23.6v48.5v97.4c0,3.1-3.8,5.9-8.2,5.9h-6c-4.3,0-8.2-2.7-8.2-5.9v-14.4v-32.7v-15.2
		c0-13-10.6-23.6-23.6-23.6h-29.2c-13,0-23.6,10.6-23.6,23.6v93.1V575c0,13,10.6,23.6,23.6,23.6h0.3h28.9h99c4.3,0.1,7.8,3.7,7.9,8
		c0,0,0,0.1,0,0.1v27.7c0,0,0,0,0,0v3.1v17.3c0,4.5-3.7,8.2-8.2,8.2h-29.2c-4.5,0-8.2-3.7-8.2-8.2v-23.2c0-0.1,0-0.2,0-0.3v-1.7
		c0-2.3-1.8-4.1-4.1-4.1h-7.3c-2.3,0-4.1,1.8-4.1,4.1v1.7c0,0.1,0,0.2,0,0.3v23.2c0,13,10.6,23.6,23.6,23.6h29.2
		c13,0,23.6-10.6,23.6-23.6v-20.4v-27.7v-0.2c0.1-4.3,3.6-7.8,7.9-7.9h62.2h2.5h1.3c13,0,23.6-9.6,23.6-21.3v-1.8v-95.6V478
		C420.6,466.3,410,456.7,397,456.7z M171.9,583.2c-4.6,0-8.4-3.7-8.4-8.2v-29.2v-93.1c0-4.5,3.7-8.2,8.2-8.2h29.2
		c4.5,0,8.2,3.7,8.2,8.2v21.8v30.2v10.4c0,11.8,10.6,21.3,23.6,21.3h6c12.3,0,22.4-8.5,23.5-19.3c0,0,0.1,0,0.1,0v-2v-97.4v-48.5
		c0-4.5,3.7-8.2,8.2-8.2h29.2c4.5,0,8.2,3.7,8.2,8.2v153.4v3.1c0,0,0,0,0,0V575c0,0,0,0.1,0,0.1c-0.1,4.4-3.7,8-8.1,8h-19.4
		c0,0,0,0,0,0.1h-79.4H171.9z"/>
	<g>
		<g>
			<path class="st2" d="M541.8,386h-0.1h-16.1h-53.6c0,0,0,0,0,0h-1.4c-7.3,0-13.2,5.9-13.2,13.2v11.3v16.1v43.6v43.7v43.6v16.1V585
				c0,7.3,5.9,13.2,13.2,13.2h1.4c0,0,0,0,0,0h53.6h16.1h0.1c7.3,0,13.2-5.9,13.2-13.2v-16.3v-51.9c0-7.3-5.9-13.2-13.2-13.2h-16.3
				c-7.3,0-13.2,5.9-13.2,13.2v8.5v18.3v8c0,1.7-2.1,3.3-4.5,3.3h-3.3c-2.4,0-4.5-1.5-4.5-3.3v-37.6v-43.7v-37.6
				c0-1.7,2.1-3.3,4.5-3.3h3.3c2.4,0,4.5,1.5,4.5,3.3v8v18.3v8.5c0,7.3,5.9,13.2,13.2,13.2h16.3c7.3,0,13.2-5.9,13.2-13.2v-51.9
				v-16.3C554.9,391.9,549,386,541.8,386z"/>
			<path class="st2" d="M611.2,489.9v-57.3c0-1.7,2.1-3.3,4.5-3.3h3.3c2.4,0,4.5,1.5,4.5,3.3v152.3c0,7.3,5.9,13.2,13.2,13.2h16.3
				c7.3,0,13.2-5.9,13.2-13.2V399.2c0-7.3-5.9-13.2-13.2-13.2h-69.9c0,0,0,0,0,0h-1.4c-7.3,0-13.2,5.9-13.2,13.2v90.7H611.2z"/>
			<path class="st2" d="M611.2,432.6v152.3c0,7.3-5.9,13.2-13.2,13.2h-16.3c-7.3,0-13.2-5.9-13.2-13.2V399.2"/>
			<path class="st2" d="M764.4,386h-0.1h-16.1h-53.6c0,0,0,0,0,0h-1.4c-7.3,0-13.2,5.9-13.2,13.2v11.3v16.1v43.6v43.7v43.6v16.1V585
				c0,7.3,5.9,13.2,13.2,13.2h1.4c0,0,0,0,0,0h53.6h16.1h0.1c7.3,0,13.2-5.9,13.2-13.2v-16.3v-51.9c0-7.3-5.9-13.2-13.2-13.2h-16.3
				c-7.3,0-13.2,5.9-13.2,13.2v8.5v18.3v8c0,1.7-2.1,3.3-4.5,3.3h-3.3c-2.4,0-4.5-1.5-4.5-3.3v-37.6v-43.7v-37.6
				c0-1.7,2.1-3.3,4.5-3.3h3.3c2.4,0,4.5,1.5,4.5,3.3v8v18.3v8.5c0,7.3,5.9,13.2,13.2,13.2h16.3c7.3,0,13.2-5.9,13.2-13.2v-51.9
				v-16.3C777.5,391.9,771.6,386,764.4,386z"/>
			<path class="st2" d="M913.8,399.5c0-1.4-0.2-2.8-0.6-4.1c-1.6-5.4-6.7-9.4-12.6-9.4H751.1c-5,0-9.4,2.8-11.6,6.9
				c-1.1,1.9-1.7,4.2-1.7,6.5V416c0,7.4,6,13.3,13.3,13.3H824c2.4,0,4.4,1.5,4.4,3.3v97.2h0v54.8c0,7.3,5.9,13.2,13.2,13.2h16.3
				c7.3,0,13.2-5.9,13.2-13.2v-80.5h0v-71.5c0-1.5,1.6-2.8,3.5-3.2c0,0,0-0.1,0-0.1h25.8c6.6,0,12.1-4.8,13.2-11.2c0,0,0.1,0,0.1,0
				v-0.7c0.1-0.5,0.1-1,0.1-1.5V399.5z"/>
			<g>
				<path class="st2" d="M1007.4,386h-0.1h-16.1h-53.6c0,0,0,0,0,0h-1.4c-7.3,0-13.2,5.9-13.2,13.2v11.3v16.1v43.6v43.7v43.6v16.1
					V585c0,7.3,5.9,13.2,13.2,13.2h1.4c0,0,0,0,0,0h53.6h16.1h0.1c7.3,0,13.2-5.9,13.2-13.2v-16.3v-51.9c0-7.3-5.9-13.2-13.2-13.2
					h-16.3c-7.3,0-13.2,5.9-13.2,13.2v8.5v18.3v8c0,1.7-2.1,3.3-4.5,3.3h-3.3c-2.4,0-4.5-1.5-4.5-3.3v-37.6v-43.7v-37.6
					c0-1.7,2.1-3.3,4.5-3.3h3.3c2.4,0,4.5,1.5,4.5,3.3v8V532v8.5c0,7.3,5.9,13.2,13.2,13.2h16.3c7.3,0,13.2-5.9,13.2-13.2v-125
					v-16.3C1020.6,391.9,1014.7,386,1007.4,386z"/>
			</g>
			<g>
				<path class="st2" d="M1118.7,386h-69.9c0,0,0,0,0,0h-1.4c-7.3,0-13.2,5.9-13.2,13.2v98.4l24.8-15.7c2.3-4.2,6.5-7.3,12.8-7.3
					c1.8,0,3.5,0.3,5,0.7v-42.7c0-1.7,2.1-3.3,4.5-3.3h3.3c2.4,0,4.5,1.5,4.5,3.3v16.5c0,7.3,5.9,13.2,13.2,13.2h16.3
					c7.3,0,13.2-5.9,13.2-13.2v-49.9C1131.9,391.9,1126,386,1118.7,386z"/>
				<path class="st2" d="M1126.8,502.2c-10.2-1.6-21.6,2.3-31.4-1.5c-2.3-0.9-4.3-2.1-6.1-3.7v54.5c0,1.7-2.1,3.3-4.5,3.3h-3.3
					c-2.4,0-4.5-1.5-4.5-3.3v-16.5c0-7.3-5.9-13.2-13.2-13.2h-16.3c-7.3,0-13.2,5.9-13.2,13.2V585c0,7.3,5.9,13.2,13.2,13.2h69.9
					c0,0,0,0,0,0h1.4c7.3,0,13.2-5.9,13.2-13.2v-99.2C1130.2,485.9,1128.5,502.5,1126.8,502.2z"/>
				<path class="st2" d="M1089.3,517.7v3.3h17.8c-0.2-4.5-0.9-8.9-2.6-12.5c-5.4-11.4-15.1-8.6-26-8.1c-10,0.4-14.5,7.8-21.7,12.8
					h29.2C1087.8,513.2,1089.3,515.3,1089.3,517.7z"/>
				<path class="st2" d="M1089.3,517.7v3.3h17.8c-0.2-4.5-0.9-8.9-2.6-12.5c-5.4-11.4-15.1-8.6-26-8.1c-10,0.4-14.5,7.8-21.7,12.8
					h29.2C1087.8,513.2,1089.3,515.3,1089.3,517.7z"/>
				<path class="st2" d="M1076.9,466.5v-3.3H1059c0.2,4.5,0.9,8.9,2.6,12.5c5.4,11.4,15.1,8.6,26,8.1c10-0.4,14.5-7.8,21.7-12.8
					h-29.2C1078.4,471,1076.9,468.9,1076.9,466.5z"/>
				<path class="st2" d="M1132,499.9v-10.3v-6.1c0-0.2,0-0.3,0-0.5c0,0,0,0,0,0c-0.6-6.7-6.3-12-13.2-12h-26.9h-30.7h-0.3h-13.4
					c-7.3,0-13.2,5.9-13.2,13.2v10.3v6.1c0,0.2,0,0.3,0,0.5c0,0,0,0,0,0c0.6,6.7,6.3,12,13.2,12h57.6h0.3h13.4
					C1126.1,513.1,1132,507.2,1132,499.9z"/>
			</g>
			<path class="st2" d="M648.5,504.4h-67.3c-1.5,0-2.8-1.2-2.8-2.8v-18.1c0-1.5,1.2-2.8,2.8-2.8h67.3c1.5,0,2.8,1.2,2.8,2.8v18.1
				C651.2,503.1,650,504.4,648.5,504.4z"/>
			<g>
				<path class="st2" d="M623.6,506.8v1.8h9.8c-0.1-2.5-0.5-4.9-1.4-6.9c-3-6.3-8.3-4.7-14.2-4.5c-5.5,0.2-7.9,4.3-11.9,7h16
					C622.8,504.3,623.6,505.5,623.6,506.8z"/>
				<path class="st2" d="M611.1,506.8v1.8h-9.8c0.1-2.5,0.5-4.9,1.4-6.9c3-6.3,8.3-4.7,14.2-4.5c5.5,0.2,7.9,4.3,11.9,7h-16
					C612,504.3,611.1,505.5,611.1,506.8z"/>
			</g>
			<g>
				<path class="st2" d="M611.1,478.2v-1.8h-9.8c0.1,2.5,0.5,4.9,1.4,6.9c3,6.3,8.3,4.7,14.2,4.5c5.5-0.2,7.9-4.3,11.9-7h-16
					C612,480.7,611.1,479.5,611.1,478.2z"/>
				<path class="st2" d="M623.6,478.2v-1.8h9.8c-0.1,2.5-0.5,4.9-1.4,6.9c-3,6.3-8.3,4.7-14.2,4.5c-5.5-0.2-7.9-4.3-11.9-7h16
					C622.8,480.7,623.6,479.5,623.6,478.2z"/>
			</g>
		</g>
	</g>
	<g>
		<path class="st1" d="M529.2,633.6c-1.1-1.1-2.4-2-3.8-2.6c-1.5-0.6-3-0.9-4.7-0.9h-3.2c-1.7,0-3.2,0.3-4.7,0.9
			c-1.5,0.6-2.8,1.5-3.8,2.6c-1.1,1.1-2,2.4-2.6,3.8c-0.6,1.5-0.9,3-0.9,4.7v24.3c0,1.7,0.3,3.2,0.9,4.7c0.6,1.4,1.5,2.7,2.6,3.8
			c1.1,1.1,2.4,2,3.8,2.6c1.5,0.6,3,0.9,4.7,0.9h3.2c1.7,0,3.2-0.3,4.7-0.9c1.4-0.6,2.7-1.5,3.8-2.6c1.1-1.1,2-2.4,2.6-3.8
			c0.6-1.5,0.9-3,0.9-4.7v-2.6l-5.9-1v3.5c0,0.9-0.2,1.7-0.5,2.5c-0.3,0.8-0.8,1.5-1.4,2c-0.6,0.6-1.2,1-2,1.4
			c-0.8,0.3-1.6,0.5-2.5,0.5h-2.8c-0.9,0-1.7-0.2-2.5-0.5c-0.8-0.3-1.4-0.8-2-1.4c-0.6-0.6-1-1.3-1.4-2c-0.3-0.8-0.5-1.6-0.5-2.5
			v-24.3c0-0.9,0.2-1.7,0.5-2.5c0.3-0.8,0.8-1.4,1.4-2c0.6-0.6,1.3-1,2-1.4c0.8-0.3,1.6-0.5,2.5-0.5h2.8c0.9,0,1.7,0.2,2.5,0.5
			c0.8,0.3,1.4,0.8,2,1.4c0.6,0.6,1,1.2,1.4,2c0.3,0.8,0.5,1.6,0.5,2.5v3.5l5.9-0.9v-2.6c0-1.7-0.3-3.2-0.9-4.7
			C531.1,636,530.3,634.7,529.2,633.6z"/>
		<path class="st1" d="M585.1,633.6c-1.1-1.1-2.4-2-3.8-2.6c-1.5-0.6-3-0.9-4.7-0.9h-3.2c-1.7,0-3.2,0.3-4.7,0.9
			c-1.5,0.6-2.8,1.5-3.8,2.6c-1.1,1.1-2,2.4-2.6,3.8c-0.6,1.5-0.9,3-0.9,4.7v24.3c0,1.7,0.3,3.2,0.9,4.7c0.6,1.4,1.5,2.7,2.6,3.8
			c1.1,1.1,2.4,2,3.8,2.6c1.5,0.6,3,0.9,4.7,0.9h3.2c1.7,0,3.2-0.3,4.7-0.9c1.4-0.6,2.7-1.5,3.8-2.6c1.1-1.1,2-2.4,2.6-3.8
			c0.6-1.5,0.9-3,0.9-4.7v-24.3c0-1.7-0.3-3.2-0.9-4.7C587.1,636,586.2,634.7,585.1,633.6z M582.8,642.1v24.3c0,0.9-0.2,1.7-0.5,2.5
			c-0.3,0.8-0.8,1.5-1.4,2c-0.6,0.6-1.2,1-2,1.4c-0.8,0.3-1.6,0.5-2.5,0.5h-2.8c-0.9,0-1.7-0.2-2.5-0.5c-0.8-0.3-1.4-0.8-2-1.4
			c-0.6-0.6-1-1.3-1.4-2c-0.3-0.8-0.5-1.6-0.5-2.5v-24.3c0-0.9,0.2-1.7,0.5-2.5c0.3-0.8,0.8-1.4,1.4-2c0.6-0.6,1.3-1,2-1.4
			c0.8-0.3,1.6-0.5,2.5-0.5h2.8c0.9,0,1.7,0.2,2.5,0.5c0.8,0.3,1.4,0.8,2,1.4c0.6,0.6,1,1.2,1.4,2
			C582.6,640.4,582.8,641.2,582.8,642.1z"/>
		<polygon class="st1" points="640,662.6 622.1,631.4 618.6,631.4 618.6,678.5 624.5,678.5 624.5,647.3 642.4,678.5 645.9,678.5 
			645.9,631.4 640,631.4 		"/>
		<path class="st1" d="M699.5,656.1c-1.1-1-2.3-1.8-3.6-2.5c-1.3-0.6-2.6-1.3-4-1.8c-1.3-0.5-2.7-1.1-3.9-1.6
			c-1.2-0.5-2.3-1.1-3.3-1.7c-0.9-0.6-1.6-1.4-2.2-2.3c-0.5-0.8-0.8-1.9-0.8-3.2v-0.9c0-0.9,0.2-1.7,0.5-2.5c0.3-0.8,0.8-1.4,1.4-2
			c0.6-0.6,1.3-1,2-1.4c0.8-0.3,1.6-0.5,2.5-0.5h2.5c0.9,0,1.7,0.2,2.5,0.5c0.8,0.3,1.4,0.8,2,1.4c0.6,0.6,1,1.2,1.4,2
			c0.3,0.8,0.5,1.6,0.5,2.5v2.9l5.9-1v-1.9c0-1.7-0.3-3.2-0.9-4.7c-0.6-1.4-1.5-2.7-2.6-3.8c-1.1-1.1-2.4-2-3.8-2.6
			c-1.5-0.6-3-0.9-4.7-0.9h-2.9c-1.7,0-3.2,0.3-4.7,0.9c-1.5,0.6-2.8,1.5-3.8,2.6c-1.1,1.1-2,2.4-2.6,3.8c-0.6,1.5-0.9,3-0.9,4.7
			v0.9c0,2.1,0.3,3.8,1,5.3c0.7,1.4,1.6,2.7,2.6,3.7c1.1,1,2.3,1.8,3.6,2.4c1.3,0.6,2.6,1.2,4,1.7c1.3,0.5,2.6,1,3.9,1.5
			c1.2,0.5,2.3,1.1,3.2,1.7c0.9,0.7,1.6,1.4,2.2,2.4c0.5,0.9,0.8,2,0.8,3.4v1.4c0,0.9-0.2,1.7-0.5,2.4c-0.4,0.8-0.9,1.5-1.5,2
			c-0.6,0.6-1.3,1-2.1,1.4c-0.8,0.3-1.6,0.5-2.5,0.5h-2.8c-0.9,0-1.7-0.2-2.5-0.5c-0.8-0.3-1.5-0.8-2.1-1.4c-0.6-0.6-1.1-1.3-1.5-2
			c-0.4-0.8-0.5-1.6-0.5-2.4v-3.5l-5.9,1v2.6c0,1.7,0.3,3.2,1,4.7c0.7,1.4,1.6,2.7,2.7,3.8c1.1,1.1,2.4,1.9,3.9,2.6
			c1.5,0.6,3.1,0.9,4.7,0.9h3.3c1.6,0,3.2-0.3,4.7-0.9c1.5-0.6,2.8-1.5,3.9-2.6c1.1-1.1,2-2.4,2.7-3.8c0.7-1.5,1-3,1-4.7v-1.4
			c0-2.1-0.3-3.8-1-5.3C701.5,658.4,700.6,657.1,699.5,656.1z"/>
		<polygon class="st1" points="728.2,637 739.1,637 739.1,678.5 744.9,678.5 744.9,637 755.7,637 755.7,631.4 728.2,631.4 		"/>
		<path class="st1" d="M801.7,658.2c1.5-0.6,2.7-1.5,3.8-2.6c1.1-1.1,2-2.4,2.6-3.8s0.9-3,0.9-4.7v-3.7c0-1.7-0.3-3.2-0.9-4.7
			c-0.6-1.5-1.5-2.8-2.6-3.8c-1.1-1.1-2.4-2-3.8-2.6c-1.5-0.6-3-0.9-4.7-0.9h-15.3v47.1h5.9v-19.3h4.2l12.3,19.3h6.8L798.6,659
			C799.7,658.9,800.8,658.6,801.7,658.2z M787.7,637h9.2c0.9,0,1.7,0.2,2.5,0.5c0.8,0.3,1.4,0.8,2,1.4c0.6,0.6,1,1.3,1.4,2
			c0.3,0.8,0.5,1.6,0.5,2.5v3.7c0,0.9-0.2,1.7-0.5,2.5c-0.3,0.8-0.8,1.5-1.4,2c-0.6,0.6-1.2,1-2,1.4c-0.8,0.3-1.6,0.5-2.5,0.5h-9.2
			V637z"/>
		<path class="st1" d="M859,666.5c0,0.9-0.2,1.7-0.5,2.5c-0.3,0.8-0.8,1.5-1.4,2c-0.6,0.6-1.2,1-2,1.4c-0.8,0.3-1.6,0.5-2.5,0.5
			h-2.8c-0.9,0-1.7-0.2-2.5-0.5c-0.8-0.3-1.5-0.8-2-1.4c-0.6-0.6-1-1.3-1.4-2c-0.3-0.8-0.5-1.6-0.5-2.5v-35.7h-5.9v35.7
			c0,1.7,0.3,3.2,0.9,4.7c0.6,1.4,1.5,2.7,2.6,3.8c1.1,1.1,2.4,2,3.8,2.6c1.5,0.6,3,0.9,4.7,0.9h3.2c1.6,0,3.2-0.3,4.7-0.9
			c1.4-0.6,2.7-1.5,3.8-2.6c1.1-1.1,2-2.4,2.6-3.8c0.6-1.5,0.9-3,0.9-4.7v-35.7H859V666.5z"/>
		<polygon class="st1" points="891,637 901.8,637 901.8,678.5 907.6,678.5 907.6,637 918.5,637 918.5,631.4 891,631.4 		"/>
		<path class="st1" d="M968.3,633.6c-1.1-1.1-2.4-2-3.8-2.6c-1.5-0.6-3-0.9-4.7-0.9h-3.2c-1.7,0-3.2,0.3-4.7,0.9
			c-1.5,0.6-2.8,1.5-3.8,2.6c-1.1,1.1-2,2.4-2.6,3.8c-0.6,1.5-0.9,3-0.9,4.7v24.3c0,1.7,0.3,3.2,0.9,4.7c0.6,1.4,1.5,2.7,2.6,3.8
			c1.1,1.1,2.4,2,3.8,2.6c1.5,0.6,3,0.9,4.7,0.9h3.2c1.6,0,3.2-0.3,4.7-0.9c1.4-0.6,2.7-1.5,3.8-2.6c1.1-1.1,2-2.4,2.6-3.8
			c0.6-1.5,0.9-3,0.9-4.7v-24.3c0-1.7-0.3-3.2-0.9-4.7C970.2,636,969.4,634.7,968.3,633.6z M965.9,642.1v24.3c0,0.9-0.2,1.7-0.5,2.5
			c-0.3,0.8-0.8,1.5-1.4,2c-0.6,0.6-1.2,1-2,1.4c-0.8,0.3-1.6,0.5-2.5,0.5h-2.8c-0.9,0-1.7-0.2-2.5-0.5c-0.8-0.3-1.5-0.8-2-1.4
			c-0.6-0.6-1-1.3-1.4-2c-0.3-0.8-0.5-1.6-0.5-2.5v-24.3c0-0.9,0.2-1.7,0.5-2.5c0.3-0.8,0.8-1.4,1.4-2c0.6-0.6,1.3-1,2-1.4
			c0.8-0.3,1.6-0.5,2.5-0.5h2.8c0.9,0,1.7,0.2,2.5,0.5c0.8,0.3,1.4,0.8,2,1.4c0.6,0.6,1,1.2,1.4,2
			C965.8,640.4,965.9,641.2,965.9,642.1z"/>
		<path class="st1" d="M1021.1,658.2c1.5-0.6,2.7-1.5,3.8-2.6c1.1-1.1,2-2.4,2.6-3.8s0.9-3,0.9-4.7v-3.7c0-1.7-0.3-3.2-0.9-4.7
			c-0.6-1.5-1.5-2.8-2.6-3.8c-1.1-1.1-2.4-2-3.8-2.6c-1.5-0.6-3-0.9-4.7-0.9h-15.3v47.1h5.9v-19.3h4.2l12.3,19.3h6.8L1018,659
			C1019,658.9,1020.1,658.6,1021.1,658.2z M1007,637h9.2c0.9,0,1.7,0.2,2.5,0.5c0.8,0.3,1.4,0.8,2,1.4c0.6,0.6,1,1.3,1.4,2
			c0.3,0.8,0.5,1.6,0.5,2.5v3.7c0,0.9-0.2,1.7-0.5,2.5c-0.3,0.8-0.8,1.5-1.4,2c-0.6,0.6-1.2,1-2,1.4c-0.8,0.3-1.6,0.5-2.5,0.5h-9.2
			V637z"/>
		<path class="st1" d="M1070,631.4h-3.5l-13.8,47.1h6.1l3-10.6h13l3,10.6h6.1L1070,631.4z M1073.2,662.2h-9.8l4.9-17.2L1073.2,662.2
			z"/>
	</g>
</g>
<text transform="matrix(1 0 0 1 127.8003 953.7588)" class="st2 st3 st4">OBS:fundo apenas para ver a logo </text>
</svg>
